<svg width="10" height="12" viewBox="0 0 10 12" fill="none" xmlns="http://www.w3.org/2000/svg">
<path d="M3.75 0.999969H1.75C1.19772 0.999969 0.75 1.44768 0.75 1.99997V3.99997C0.75 4.55225 1.19772 4.99997 1.75 4.99997H3.75C4.30228 4.99997 4.75 4.55225 4.75 3.99997V1.99997C4.75 1.44768 4.30228 0.999969 3.75 0.999969Z" stroke="#E6704B" stroke-linecap="round" stroke-linejoin="bevel"/>
<path d="M3.75 6.99997H1.75C1.19772 6.99997 0.75 7.44768 0.75 7.99997V9.99997C0.75 10.5523 1.19772 11 1.75 11H3.75C4.30228 11 4.75 10.5523 4.75 9.99997V7.99997C4.75 7.44768 4.30228 6.99997 3.75 6.99997Z" stroke="#E6704B" stroke-linecap="round" stroke-linejoin="bevel"/>
<path d="M9.25 7.99994H6.25" stroke="#E6704B" stroke-linecap="round" stroke-linejoin="bevel"/>
<path d="M8.25 9.99997H6.25" stroke="#E6704B" stroke-linecap="round" stroke-linejoin="bevel"/>
<path d="M8.25 3.99997H6.25" stroke="#E6704B" stroke-linecap="round" stroke-linejoin="bevel"/>
<path d="M9.25 1.99994H6.25" stroke="#E6704B" stroke-linecap="round" stroke-linejoin="bevel"/>
</svg>
