<svg width="14" height="17" viewBox="0 0 14 17" fill="none" xmlns="http://www.w3.org/2000/svg">
<path d="M5.33398 1.83331H2.66732C1.93094 1.83331 1.33398 2.43027 1.33398 3.16665V5.83331C1.33398 6.56969 1.93094 7.16665 2.66732 7.16665H5.33398C6.07036 7.16665 6.66732 6.56969 6.66732 5.83331V3.16665C6.66732 2.43027 6.07036 1.83331 5.33398 1.83331Z" stroke="#E6704B" stroke-width="2" stroke-linecap="round" stroke-linejoin="round"/>
<path d="M5.33398 9.83331H2.66732C1.93094 9.83331 1.33398 10.4303 1.33398 11.1666V13.8333C1.33398 14.5697 1.93094 15.1666 2.66732 15.1666H5.33398C6.07036 15.1666 6.66732 14.5697 6.66732 13.8333V11.1666C6.66732 10.4303 6.07036 9.83331 5.33398 9.83331Z" stroke="#E6704B" stroke-width="2" stroke-linecap="round" stroke-linejoin="round"/>
<path d="M12.668 11.1665H8.66797" stroke="#E6704B" stroke-width="2" stroke-linecap="round" stroke-linejoin="round"/>
<path d="M11.3346 13.8333H8.66797" stroke="#E6704B" stroke-width="2" stroke-linecap="round" stroke-linejoin="round"/>
<path d="M11.3346 5.83331H8.66797" stroke="#E6704B" stroke-width="2" stroke-linecap="round" stroke-linejoin="round"/>
<path d="M12.668 3.16647H8.66797" stroke="#E6704B" stroke-width="2" stroke-linecap="round" stroke-linejoin="round"/>
</svg>
