<svg width="16" height="15" viewBox="0 0 16 15" fill="none" xmlns="http://www.w3.org/2000/svg">
<path fill-rule="evenodd" clip-rule="evenodd" d="M8.87281 2.76001C9.50933 2.12349 10.3726 1.7659 11.2728 1.7659C12.173 1.7659 13.0363 2.12349 13.6728 2.76001C14.3093 3.39653 14.6669 4.25984 14.6669 5.16001C14.6669 6.06019 14.3093 6.92349 13.6728 7.56001L12.7995 8.43334L7.99948 13.2333L3.19948 8.43334L2.32614 7.56001C1.68962 6.92349 1.33203 6.06019 1.33203 5.16001C1.33203 4.25984 1.68962 3.39653 2.32614 2.76001C2.96266 2.12349 3.82597 1.7659 4.72614 1.7659C5.62632 1.7659 6.48962 2.12349 7.12614 2.76001L7.99948 3.63334L8.87281 2.76001Z" stroke="#E6704B" stroke-width="2" stroke-linecap="round" stroke-linejoin="round"/>
</svg>
